<svg width="128" height="128" viewBox="0 0 128 128" fill="none" xmlns="http://www.w3.org/2000/svg">
<rect width="128" height="128" rx="16" fill="#292825"/>
<g clip-path="url(#clip0_75_19)">
<path d="M38.2605 92.4574L33 28.1207L95.8235 28.25L90.2611 92.4574L64.6489 99.8792L38.2605 92.4574Z" fill="#1B73BA"/>
<path d="M64.6489 93.6656V34.248L90.5201 34.3342L85.9066 87.4952L64.6489 93.6656Z" fill="#1C88C7"/>
<path d="M84.0953 41.8428H44.2971L45.3753 49.6093H64.2608L45.6772 57.5923L46.7548 65.1003H74.1353L73.1433 75.5854L63.8727 77.398L55.465 75.2406L54.818 69.2857H47.0999L48.1344 81.6702L64.692 86.2871L80.56 81.2387L82.5865 57.031H65.8127L84.0948 49.4369L84.0953 41.8428Z" fill="white"/>
</g>
<defs>
<clipPath id="clip0_75_19">
<rect width="62.8235" height="72" fill="white" transform="translate(33 28)"/>
</clipPath>
</defs>
</svg>
