<svg width="128" height="128" viewBox="0 0 128 128" fill="none" xmlns="http://www.w3.org/2000/svg">
<rect width="128" height="128" rx="16" fill="#292825"/>
<g clip-path="url(#clip0_73_3)">
<path d="M64 64C64 60.8174 65.2643 57.7652 67.5147 55.5147C69.7652 53.2643 72.8174 52 76 52C79.1826 52 82.2348 53.2643 84.4853 55.5147C86.7357 57.7652 88 60.8174 88 64C88 67.1826 86.7357 70.2348 84.4853 72.4853C82.2348 74.7357 79.1826 76 76 76C72.8174 76 69.7652 74.7357 67.5147 72.4853C65.2643 70.2348 64 67.1826 64 64V64Z" fill="#1ABCFE"/>
<path d="M40 88C40 84.8174 41.2643 81.7652 43.5147 79.5147C45.7652 77.2643 48.8174 76 52 76H64V88C64 91.1826 62.7357 94.2348 60.4853 96.4853C58.2348 98.7357 55.1826 100 52 100C48.8174 100 45.7652 98.7357 43.5147 96.4853C41.2643 94.2348 40 91.1826 40 88V88Z" fill="#0ACF83"/>
<path d="M64 28V52H76C79.1826 52 82.2348 50.7357 84.4853 48.4853C86.7357 46.2348 88 43.1826 88 40C88 36.8174 86.7357 33.7652 84.4853 31.5147C82.2348 29.2643 79.1826 28 76 28H64Z" fill="#FF7262"/>
<path d="M40 40C40 43.1826 41.2643 46.2348 43.5147 48.4853C45.7652 50.7357 48.8174 52 52 52H64V28H52C48.8174 28 45.7652 29.2643 43.5147 31.5147C41.2643 33.7652 40 36.8174 40 40V40Z" fill="#F24E1E"/>
<path d="M40 64C40 67.1826 41.2643 70.2348 43.5147 72.4853C45.7652 74.7357 48.8174 76 52 76H64V52H52C48.8174 52 45.7652 53.2643 43.5147 55.5147C41.2643 57.7652 40 60.8174 40 64V64Z" fill="#A259FF"/>
</g>
<defs>
<clipPath id="clip0_73_3">
<rect width="48" height="72" fill="white" transform="translate(40 28)"/>
</clipPath>
</defs>
</svg>
