<svg width="1280" height="768" viewBox="0 0 1280 768" fill="none" xmlns="http://www.w3.org/2000/svg">
<g clip-path="url(#clip0_6_3)">
<rect width="1280" height="768" fill="#292825"/>
<rect x="-0.5" y="-0.5" width="65" height="65" fill="#1D1C1A" stroke="#292825"/>
<rect x="63.5" y="-0.5" width="65" height="65" fill="#1D1C1A" stroke="#292825"/>
<rect x="127.5" y="-0.5" width="65" height="65" fill="#1D1C1A" stroke="#292825"/>
<rect x="255.5" y="-0.5" width="65" height="65" fill="#1D1C1A" stroke="#292825"/>
<rect x="191.5" y="-0.5" width="65" height="65" fill="#1D1C1A" stroke="#292825"/>
<rect x="319.5" y="-0.5" width="65" height="65" fill="#1D1C1A" stroke="#292825"/>
<rect x="383.5" y="-0.5" width="65" height="65" fill="#1D1C1A" stroke="#292825"/>
<rect x="447.5" y="-0.5" width="65" height="65" fill="#1D1C1A" stroke="#292825"/>
<rect x="575.5" y="-0.5" width="65" height="65" fill="#1D1C1A" stroke="#292825"/>
<rect x="511.5" y="-0.5" width="65" height="65" fill="#1D1C1A" stroke="#292825"/>
<rect x="639.5" y="-0.5" width="65" height="65" fill="#1D1C1A" stroke="#292825"/>
<rect x="703.5" y="-0.5" width="65" height="65" fill="#1D1C1A" stroke="#292825"/>
<rect x="-0.5" y="63.5" width="65" height="65" fill="#1D1C1A" stroke="#292825"/>
<rect x="63.5" y="63.5" width="65" height="65" fill="#1D1C1A" stroke="#292825"/>
<rect x="127.5" y="63.5" width="65" height="65" fill="#1D1C1A" stroke="#292825"/>
<rect x="255.5" y="63.5" width="65" height="65" fill="#1D1C1A" stroke="#292825"/>
<rect x="191.5" y="63.5" width="65" height="65" fill="#1D1C1A" stroke="#292825"/>
<rect x="319.5" y="63.5" width="65" height="65" fill="#1D1C1A" stroke="#292825"/>
<rect x="383.5" y="63.5" width="65" height="65" fill="#1D1C1A" stroke="#292825"/>
<rect x="447.5" y="63.5" width="65" height="65" fill="#1D1C1A" stroke="#292825"/>
<rect x="575.5" y="63.5" width="65" height="65" fill="#1D1C1A" stroke="#292825"/>
<rect x="511.5" y="63.5" width="65" height="65" fill="#1D1C1A" stroke="#292825"/>
<rect x="639.5" y="63.5" width="65" height="65" fill="#1D1C1A" stroke="#292825"/>
<rect x="703.5" y="63.5" width="65" height="65" fill="#1D1C1A" stroke="#292825"/>
<rect x="-0.5" y="127.5" width="65" height="65" fill="#1D1C1A" stroke="#292825"/>
<rect x="63.5" y="127.5" width="65" height="65" fill="#1D1C1A" stroke="#292825"/>
<rect x="127.5" y="127.5" width="65" height="65" fill="#1D1C1A" stroke="#292825"/>
<rect x="255.5" y="127.5" width="65" height="65" fill="#1D1C1A" stroke="#292825"/>
<rect x="191.5" y="127.5" width="65" height="65" fill="#1D1C1A" stroke="#292825"/>
<rect x="319.5" y="127.5" width="65" height="65" fill="#1D1C1A" stroke="#292825"/>
<rect x="383.5" y="127.5" width="65" height="65" fill="#1D1C1A" stroke="#292825"/>
<rect x="447.5" y="127.5" width="65" height="65" fill="#1D1C1A" stroke="#292825"/>
<rect x="575.5" y="127.5" width="65" height="65" fill="#1D1C1A" stroke="#292825"/>
<rect x="511.5" y="127.5" width="65" height="65" fill="#1D1C1A" stroke="#292825"/>
<rect x="639.5" y="127.5" width="65" height="65" fill="#1D1C1A" stroke="#292825"/>
<rect x="703.5" y="127.5" width="65" height="65" fill="#1D1C1A" stroke="#292825"/>
<rect x="-0.5" y="191.5" width="65" height="65" fill="#1D1C1A" stroke="#292825"/>
<rect x="63.5" y="191.5" width="65" height="65" fill="#1D1C1A" stroke="#292825"/>
<rect x="127.5" y="191.5" width="65" height="65" fill="#1D1C1A" stroke="#292825"/>
<rect x="255.5" y="191.5" width="65" height="65" fill="#1D1C1A" stroke="#292825"/>
<rect x="191.5" y="191.5" width="65" height="65" fill="#1D1C1A" stroke="#292825"/>
<rect x="319.5" y="191.5" width="65" height="65" fill="#1D1C1A" stroke="#292825"/>
<rect x="383.5" y="191.5" width="65" height="65" fill="#1D1C1A" stroke="#292825"/>
<rect x="447.5" y="191.5" width="65" height="65" fill="#1D1C1A" stroke="#292825"/>
<rect x="575.5" y="191.5" width="65" height="65" fill="#1D1C1A" stroke="#292825"/>
<rect x="511.5" y="191.5" width="65" height="65" fill="#1D1C1A" stroke="#292825"/>
<rect x="639.5" y="191.5" width="65" height="65" fill="#1D1C1A" stroke="#292825"/>
<rect x="703.5" y="191.5" width="65" height="65" fill="#1D1C1A" stroke="#292825"/>
<rect x="-0.5" y="255.5" width="65" height="65" fill="#1D1C1A" stroke="#292825"/>
<rect x="63.5" y="255.5" width="65" height="65" fill="#1D1C1A" stroke="#292825"/>
<rect x="127.5" y="255.5" width="65" height="65" fill="#1D1C1A" stroke="#292825"/>
<rect x="255.5" y="255.5" width="65" height="65" fill="#1D1C1A" stroke="#292825"/>
<rect x="191.5" y="255.5" width="65" height="65" fill="#1D1C1A" stroke="#292825"/>
<rect x="319.5" y="255.5" width="65" height="65" fill="#1D1C1A" stroke="#292825"/>
<rect x="383.5" y="255.5" width="65" height="65" fill="#1D1C1A" stroke="#292825"/>
<rect x="447.5" y="255.5" width="65" height="65" fill="#1D1C1A" stroke="#292825"/>
<rect x="575.5" y="255.5" width="65" height="65" fill="#1D1C1A" stroke="#292825"/>
<rect x="511.5" y="255.5" width="65" height="65" fill="#1D1C1A" stroke="#292825"/>
<rect x="639.5" y="255.5" width="65" height="65" fill="#1D1C1A" stroke="#292825"/>
<rect x="703.5" y="255.5" width="65" height="65" fill="#1D1C1A" stroke="#292825"/>
<rect x="-0.5" y="319.5" width="65" height="65" fill="#1D1C1A" stroke="#292825"/>
<rect x="63.5" y="319.5" width="65" height="65" fill="#1D1C1A" stroke="#292825"/>
<rect x="127.5" y="319.5" width="65" height="65" fill="#1D1C1A" stroke="#292825"/>
<rect x="255.5" y="319.5" width="65" height="65" fill="#1D1C1A" stroke="#292825"/>
<rect x="191.5" y="319.5" width="65" height="65" fill="#1D1C1A" stroke="#292825"/>
<rect x="319.5" y="319.5" width="65" height="65" fill="#1D1C1A" stroke="#292825"/>
<rect x="383.5" y="319.5" width="65" height="65" fill="#1D1C1A" stroke="#292825"/>
<rect x="447.5" y="319.5" width="65" height="65" fill="#1D1C1A" stroke="#292825"/>
<rect x="575.5" y="319.5" width="65" height="65" fill="#1D1C1A" stroke="#292825"/>
<rect x="511.5" y="319.5" width="65" height="65" fill="#1D1C1A" stroke="#292825"/>
<rect x="639.5" y="319.5" width="65" height="65" fill="#1D1C1A" stroke="#292825"/>
<rect x="703.5" y="319.5" width="65" height="65" fill="#1D1C1A" stroke="#292825"/>
<rect x="-0.5" y="383.5" width="65" height="65" fill="#1D1C1A" stroke="#292825"/>
<rect x="63.5" y="383.5" width="65" height="65" fill="#1D1C1A" stroke="#292825"/>
<rect x="127.5" y="383.5" width="65" height="65" fill="#1D1C1A" stroke="#292825"/>
<rect x="255.5" y="383.5" width="65" height="65" fill="#1D1C1A" stroke="#292825"/>
<rect x="191.5" y="383.5" width="65" height="65" fill="#1D1C1A" stroke="#292825"/>
<rect x="319.5" y="383.5" width="65" height="65" fill="#1D1C1A" stroke="#292825"/>
<rect x="383.5" y="383.5" width="65" height="65" fill="#1D1C1A" stroke="#292825"/>
<rect x="447.5" y="383.5" width="65" height="65" fill="#1D1C1A" stroke="#292825"/>
<rect x="575.5" y="383.5" width="65" height="65" fill="#1D1C1A" stroke="#292825"/>
<rect x="511.5" y="383.5" width="65" height="65" fill="#1D1C1A" stroke="#292825"/>
<rect x="639.5" y="383.5" width="65" height="65" fill="#1D1C1A" stroke="#292825"/>
<rect x="703.5" y="383.5" width="65" height="65" fill="#1D1C1A" stroke="#292825"/>
<rect x="-0.5" y="447.5" width="65" height="65" fill="#1D1C1A" stroke="#292825"/>
<rect x="63.5" y="447.5" width="65" height="65" fill="#1D1C1A" stroke="#292825"/>
<rect x="127.5" y="447.5" width="65" height="65" fill="#1D1C1A" stroke="#292825"/>
<rect x="255.5" y="447.5" width="65" height="65" fill="#1D1C1A" stroke="#292825"/>
<rect x="191.5" y="447.5" width="65" height="65" fill="#1D1C1A" stroke="#292825"/>
<rect x="319.5" y="447.5" width="65" height="65" fill="#1D1C1A" stroke="#292825"/>
<rect x="383.5" y="447.5" width="65" height="65" fill="#1D1C1A" stroke="#292825"/>
<rect x="447.5" y="447.5" width="65" height="65" fill="#1D1C1A" stroke="#292825"/>
<rect x="575.5" y="447.5" width="65" height="65" fill="#1D1C1A" stroke="#292825"/>
<rect x="511.5" y="447.5" width="65" height="65" fill="#1D1C1A" stroke="#292825"/>
<rect x="639.5" y="447.5" width="65" height="65" fill="#1D1C1A" stroke="#292825"/>
<rect x="703.5" y="447.5" width="65" height="65" fill="#1D1C1A" stroke="#292825"/>
<rect x="767.5" y="-0.5" width="65" height="65" fill="#1D1C1A" stroke="#292825"/>
<rect x="831.5" y="-0.5" width="65" height="65" fill="#1D1C1A" stroke="#292825"/>
<rect x="895.5" y="-0.5" width="65" height="65" fill="#1D1C1A" stroke="#292825"/>
<rect x="959.5" y="-0.5" width="65" height="65" fill="#1D1C1A" stroke="#292825"/>
<rect x="1087.5" y="-0.5" width="65" height="65" fill="#1D1C1A" stroke="#292825"/>
<rect x="1023.5" y="-0.5" width="65" height="65" fill="#1D1C1A" stroke="#292825"/>
<rect x="1151.5" y="-0.5" width="65" height="65" fill="#1D1C1A" stroke="#292825"/>
<rect x="1215.5" y="-0.5" width="65" height="65" fill="#1D1C1A" stroke="#292825"/>
<rect x="767.5" y="63.5" width="65" height="65" fill="#1D1C1A" stroke="#292825"/>
<rect x="831.5" y="63.5" width="65" height="65" fill="#1D1C1A" stroke="#292825"/>
<rect x="895.5" y="63.5" width="65" height="65" fill="#1D1C1A" stroke="#292825"/>
<rect x="959.5" y="63.5" width="65" height="65" fill="#1D1C1A" stroke="#292825"/>
<rect x="1087.5" y="63.5" width="65" height="65" fill="#1D1C1A" stroke="#292825"/>
<rect x="1023.5" y="63.5" width="65" height="65" fill="#1D1C1A" stroke="#292825"/>
<rect x="1151.5" y="63.5" width="65" height="65" fill="#1D1C1A" stroke="#292825"/>
<rect x="1215.5" y="63.5" width="65" height="65" fill="#1D1C1A" stroke="#292825"/>
<rect x="767.5" y="127.5" width="65" height="65" fill="#1D1C1A" stroke="#292825"/>
<rect x="831.5" y="127.5" width="65" height="65" fill="#1D1C1A" stroke="#292825"/>
<rect x="895.5" y="127.5" width="65" height="65" fill="#1D1C1A" stroke="#292825"/>
<rect x="959.5" y="127.5" width="65" height="65" fill="#1D1C1A" stroke="#292825"/>
<rect x="1087.5" y="127.5" width="65" height="65" fill="#1D1C1A" stroke="#292825"/>
<rect x="1023.5" y="127.5" width="65" height="65" fill="#1D1C1A" stroke="#292825"/>
<rect x="1151.5" y="127.5" width="65" height="65" fill="#1D1C1A" stroke="#292825"/>
<rect x="1215.5" y="127.5" width="65" height="65" fill="#1D1C1A" stroke="#292825"/>
<rect x="767.5" y="191.5" width="65" height="65" fill="#1D1C1A" stroke="#292825"/>
<rect x="831.5" y="191.5" width="65" height="65" fill="#1D1C1A" stroke="#292825"/>
<rect x="895.5" y="191.5" width="65" height="65" fill="#1D1C1A" stroke="#292825"/>
<rect x="959.5" y="191.5" width="65" height="65" fill="#1D1C1A" stroke="#292825"/>
<rect x="1087.5" y="191.5" width="65" height="65" fill="#1D1C1A" stroke="#292825"/>
<rect x="1023.5" y="191.5" width="65" height="65" fill="#1D1C1A" stroke="#292825"/>
<rect x="1151.5" y="191.5" width="65" height="65" fill="#1D1C1A" stroke="#292825"/>
<rect x="1215.5" y="191.5" width="65" height="65" fill="#1D1C1A" stroke="#292825"/>
<rect x="767.5" y="255.5" width="65" height="65" fill="#1D1C1A" stroke="#292825"/>
<rect x="831.5" y="255.5" width="65" height="65" fill="#1D1C1A" stroke="#292825"/>
<rect x="895.5" y="255.5" width="65" height="65" fill="#1D1C1A" stroke="#292825"/>
<rect x="959.5" y="255.5" width="65" height="65" fill="#1D1C1A" stroke="#292825"/>
<rect x="1087.5" y="255.5" width="65" height="65" fill="#1D1C1A" stroke="#292825"/>
<rect x="1023.5" y="255.5" width="65" height="65" fill="#1D1C1A" stroke="#292825"/>
<rect x="1151.5" y="255.5" width="65" height="65" fill="#1D1C1A" stroke="#292825"/>
<rect x="1215.5" y="255.5" width="65" height="65" fill="#1D1C1A" stroke="#292825"/>
<rect x="767.5" y="319.5" width="65" height="65" fill="#1D1C1A" stroke="#292825"/>
<rect x="831.5" y="319.5" width="65" height="65" fill="#1D1C1A" stroke="#292825"/>
<rect x="895.5" y="319.5" width="65" height="65" fill="#1D1C1A" stroke="#292825"/>
<rect x="959.5" y="319.5" width="65" height="65" fill="#1D1C1A" stroke="#292825"/>
<rect x="1087.5" y="319.5" width="65" height="65" fill="#1D1C1A" stroke="#292825"/>
<rect x="1023.5" y="319.5" width="65" height="65" fill="#1D1C1A" stroke="#292825"/>
<rect x="1151.5" y="319.5" width="65" height="65" fill="#1D1C1A" stroke="#292825"/>
<rect x="1215.5" y="319.5" width="65" height="65" fill="#1D1C1A" stroke="#292825"/>
<rect x="767.5" y="383.5" width="65" height="65" fill="#1D1C1A" stroke="#292825"/>
<rect x="831.5" y="383.5" width="65" height="65" fill="#1D1C1A" stroke="#292825"/>
<rect x="895.5" y="383.5" width="65" height="65" fill="#1D1C1A" stroke="#292825"/>
<rect x="959.5" y="383.5" width="65" height="65" fill="#1D1C1A" stroke="#292825"/>
<rect x="1087.5" y="383.5" width="65" height="65" fill="#1D1C1A" stroke="#292825"/>
<rect x="1023.5" y="383.5" width="65" height="65" fill="#1D1C1A" stroke="#292825"/>
<rect x="1151.5" y="383.5" width="65" height="65" fill="#1D1C1A" stroke="#292825"/>
<rect x="1215.5" y="383.5" width="65" height="65" fill="#1D1C1A" stroke="#292825"/>
<rect x="767.5" y="447.5" width="65" height="65" fill="#1D1C1A" stroke="#292825"/>
<rect x="831.5" y="447.5" width="65" height="65" fill="#1D1C1A" stroke="#292825"/>
<rect x="895.5" y="447.5" width="65" height="65" fill="#1D1C1A" stroke="#292825"/>
<rect x="959.5" y="447.5" width="65" height="65" fill="#1D1C1A" stroke="#292825"/>
<rect x="1087.5" y="447.5" width="65" height="65" fill="#1D1C1A" stroke="#292825"/>
<rect x="1023.5" y="447.5" width="65" height="65" fill="#1D1C1A" stroke="#292825"/>
<rect x="1151.5" y="447.5" width="65" height="65" fill="#1D1C1A" stroke="#292825"/>
<rect x="1215.5" y="447.5" width="65" height="65" fill="#1D1C1A" stroke="#292825"/>
<rect x="-0.5" y="511.5" width="65" height="65" fill="#1D1C1A" stroke="#292825"/>
<rect x="63.5" y="511.5" width="65" height="65" fill="#1D1C1A" stroke="#292825"/>
<rect x="127.5" y="511.5" width="65" height="65" fill="#1D1C1A" stroke="#292825"/>
<rect x="255.5" y="511.5" width="65" height="65" fill="#1D1C1A" stroke="#292825"/>
<rect x="191.5" y="511.5" width="65" height="65" fill="#1D1C1A" stroke="#292825"/>
<rect x="319.5" y="511.5" width="65" height="65" fill="#1D1C1A" stroke="#292825"/>
<rect x="383.5" y="511.5" width="65" height="65" fill="#1D1C1A" stroke="#292825"/>
<rect x="447.5" y="511.5" width="65" height="65" fill="#1D1C1A" stroke="#292825"/>
<rect x="575.5" y="511.5" width="65" height="65" fill="#1D1C1A" stroke="#292825"/>
<rect x="511.5" y="511.5" width="65" height="65" fill="#1D1C1A" stroke="#292825"/>
<rect x="639.5" y="511.5" width="65" height="65" fill="#1D1C1A" stroke="#292825"/>
<rect x="703.5" y="511.5" width="65" height="65" fill="#1D1C1A" stroke="#292825"/>
<rect x="-0.5" y="575.5" width="65" height="65" fill="#1D1C1A" stroke="#292825"/>
<rect x="63.5" y="575.5" width="65" height="65" fill="#1D1C1A" stroke="#292825"/>
<rect x="127.5" y="575.5" width="65" height="65" fill="#1D1C1A" stroke="#292825"/>
<rect x="255.5" y="575.5" width="65" height="65" fill="#1D1C1A" stroke="#292825"/>
<rect x="191.5" y="575.5" width="65" height="65" fill="#1D1C1A" stroke="#292825"/>
<rect x="319.5" y="575.5" width="65" height="65" fill="#1D1C1A" stroke="#292825"/>
<rect x="383.5" y="575.5" width="65" height="65" fill="#1D1C1A" stroke="#292825"/>
<rect x="447.5" y="575.5" width="65" height="65" fill="#1D1C1A" stroke="#292825"/>
<rect x="575.5" y="575.5" width="65" height="65" fill="#1D1C1A" stroke="#292825"/>
<rect x="511.5" y="575.5" width="65" height="65" fill="#1D1C1A" stroke="#292825"/>
<rect x="639.5" y="575.5" width="65" height="65" fill="#1D1C1A" stroke="#292825"/>
<rect x="703.5" y="575.5" width="65" height="65" fill="#1D1C1A" stroke="#292825"/>
<rect x="-0.5" y="639.5" width="65" height="65" fill="#1D1C1A" stroke="#292825"/>
<rect x="63.5" y="639.5" width="65" height="65" fill="#1D1C1A" stroke="#292825"/>
<rect x="127.5" y="639.5" width="65" height="65" fill="#1D1C1A" stroke="#292825"/>
<rect x="255.5" y="639.5" width="65" height="65" fill="#1D1C1A" stroke="#292825"/>
<rect x="191.5" y="639.5" width="65" height="65" fill="#1D1C1A" stroke="#292825"/>
<rect x="319.5" y="639.5" width="65" height="65" fill="#1D1C1A" stroke="#292825"/>
<rect x="383.5" y="639.5" width="65" height="65" fill="#1D1C1A" stroke="#292825"/>
<rect x="447.5" y="639.5" width="65" height="65" fill="#1D1C1A" stroke="#292825"/>
<rect x="575.5" y="639.5" width="65" height="65" fill="#1D1C1A" stroke="#292825"/>
<rect x="511.5" y="639.5" width="65" height="65" fill="#1D1C1A" stroke="#292825"/>
<rect x="639.5" y="639.5" width="65" height="65" fill="#1D1C1A" stroke="#292825"/>
<rect x="703.5" y="639.5" width="65" height="65" fill="#1D1C1A" stroke="#292825"/>
<rect x="-0.5" y="703.5" width="65" height="65" fill="#1D1C1A" stroke="#292825"/>
<rect x="63.5" y="703.5" width="65" height="65" fill="#1D1C1A" stroke="#292825"/>
<rect x="127.5" y="703.5" width="65" height="65" fill="#1D1C1A" stroke="#292825"/>
<rect x="255.5" y="703.5" width="65" height="65" fill="#1D1C1A" stroke="#292825"/>
<rect x="191.5" y="703.5" width="65" height="65" fill="#1D1C1A" stroke="#292825"/>
<rect x="319.5" y="703.5" width="65" height="65" fill="#1D1C1A" stroke="#292825"/>
<rect x="383.5" y="703.5" width="65" height="65" fill="#1D1C1A" stroke="#292825"/>
<rect x="447.5" y="703.5" width="65" height="65" fill="#1D1C1A" stroke="#292825"/>
<rect x="575.5" y="703.5" width="65" height="65" fill="#1D1C1A" stroke="#292825"/>
<rect x="511.5" y="703.5" width="65" height="65" fill="#1D1C1A" stroke="#292825"/>
<rect x="639.5" y="703.5" width="65" height="65" fill="#1D1C1A" stroke="#292825"/>
<rect x="703.5" y="703.5" width="65" height="65" fill="#1D1C1A" stroke="#292825"/>
<rect x="767.5" y="511.5" width="65" height="65" fill="#1D1C1A" stroke="#292825"/>
<rect x="831.5" y="511.5" width="65" height="65" fill="#1D1C1A" stroke="#292825"/>
<rect x="895.5" y="511.5" width="65" height="65" fill="#1D1C1A" stroke="#292825"/>
<rect x="959.5" y="511.5" width="65" height="65" fill="#1D1C1A" stroke="#292825"/>
<rect x="1087.5" y="511.5" width="65" height="65" fill="#1D1C1A" stroke="#292825"/>
<rect x="1023.5" y="511.5" width="65" height="65" fill="#1D1C1A" stroke="#292825"/>
<rect x="1151.5" y="511.5" width="65" height="65" fill="#1D1C1A" stroke="#292825"/>
<rect x="1215.5" y="511.5" width="65" height="65" fill="#1D1C1A" stroke="#292825"/>
<rect x="767.5" y="575.5" width="65" height="65" fill="#1D1C1A" stroke="#292825"/>
<rect x="831.5" y="575.5" width="65" height="65" fill="#1D1C1A" stroke="#292825"/>
<rect x="895.5" y="575.5" width="65" height="65" fill="#1D1C1A" stroke="#292825"/>
<rect x="959.5" y="575.5" width="65" height="65" fill="#1D1C1A" stroke="#292825"/>
<rect x="1087.5" y="575.5" width="65" height="65" fill="#1D1C1A" stroke="#292825"/>
<rect x="1023.5" y="575.5" width="65" height="65" fill="#1D1C1A" stroke="#292825"/>
<rect x="1151.5" y="575.5" width="65" height="65" fill="#1D1C1A" stroke="#292825"/>
<rect x="1215.5" y="575.5" width="65" height="65" fill="#1D1C1A" stroke="#292825"/>
<rect x="767.5" y="639.5" width="65" height="65" fill="#1D1C1A" stroke="#292825"/>
<rect x="831.5" y="639.5" width="65" height="65" fill="#1D1C1A" stroke="#292825"/>
<rect x="895.5" y="639.5" width="65" height="65" fill="#1D1C1A" stroke="#292825"/>
<rect x="959.5" y="639.5" width="65" height="65" fill="#1D1C1A" stroke="#292825"/>
<rect x="1087.5" y="639.5" width="65" height="65" fill="#1D1C1A" stroke="#292825"/>
<rect x="1023.5" y="639.5" width="65" height="65" fill="#1D1C1A" stroke="#292825"/>
<rect x="1151.5" y="639.5" width="65" height="65" fill="#1D1C1A" stroke="#292825"/>
<rect x="1215.5" y="639.5" width="65" height="65" fill="#1D1C1A" stroke="#292825"/>
<rect x="767.5" y="703.5" width="65" height="65" fill="#1D1C1A" stroke="#292825"/>
<rect x="831.5" y="703.5" width="65" height="65" fill="#1D1C1A" stroke="#292825"/>
<rect x="895.5" y="703.5" width="65" height="65" fill="#1D1C1A" stroke="#292825"/>
<rect x="959.5" y="703.5" width="65" height="65" fill="#1D1C1A" stroke="#292825"/>
<rect x="1087.5" y="703.5" width="65" height="65" fill="#1D1C1A" stroke="#292825"/>
<rect x="1023.5" y="703.5" width="65" height="65" fill="#1D1C1A" stroke="#292825"/>
<rect x="1151.5" y="703.5" width="65" height="65" fill="#1D1C1A" stroke="#292825"/>
<rect x="1215.5" y="703.5" width="65" height="65" fill="#1D1C1A" stroke="#292825"/>
<path d="M1281 1H1V769H1281V1Z" fill="url(#paint0_radial_6_3)"/>
</g>
<defs>
<radialGradient id="paint0_radial_6_3" cx="0" cy="0" r="1" gradientUnits="userSpaceOnUse" gradientTransform="translate(641 385) rotate(90) scale(384 640)">
<stop stop-color="#1D1C1A" stop-opacity="0"/>
<stop offset="1" stop-color="#1D1C1A"/>
</radialGradient>
<clipPath id="clip0_6_3">
<rect width="1280" height="768" fill="white"/>
</clipPath>
</defs>
</svg>
