<svg width="128" height="128" viewBox="0 0 128 128" fill="none" xmlns="http://www.w3.org/2000/svg">
<rect width="128" height="128" rx="16" fill="#292825"/>
<g clip-path="url(#clip0_75_9)">
<path d="M28 28H100V100H28V28Z" fill="#F0DB4F"/>
<path d="M94.1072 82.8281C93.5802 79.543 91.438 76.7848 85.0935 74.2114C82.8897 73.1985 80.4327 72.4731 79.7004 70.803C79.4403 69.8312 79.4061 69.2836 79.5703 68.695C80.0426 66.7855 82.3217 66.1901 84.1285 66.7376C85.292 67.1277 86.3939 68.0244 87.0578 69.4547C90.165 67.4426 90.1582 67.4563 92.3277 66.0738C91.5338 64.8419 91.1095 64.2738 90.5893 63.7468C88.7209 61.6594 86.1749 60.5848 82.1027 60.667C81.3977 60.756 80.686 60.8517 79.981 60.9407C77.9483 61.4541 76.0114 62.5217 74.8753 63.9522C71.4669 67.8191 72.4388 74.5878 76.5863 77.3734C80.6722 80.4396 86.6745 81.1377 87.4411 84.0054C88.1871 87.5164 84.8609 88.6525 81.5551 88.2487C79.1186 87.7423 77.7636 86.5035 76.2989 84.2518C73.6023 85.8122 73.6023 85.8122 70.8305 87.4069C71.4875 88.8442 72.1787 89.4944 73.2807 90.74C78.4959 96.0305 91.5475 95.7704 93.8883 87.7628C93.984 87.489 94.6137 85.6547 94.1072 82.8281ZM67.1414 61.0912H60.4068C60.4068 66.9087 60.3795 72.6852 60.3795 78.5027C60.3795 82.2053 60.5712 85.6 59.9689 86.6403C58.9833 88.6866 56.4305 88.4334 55.267 88.0364C54.083 87.4547 53.4807 86.6265 52.7826 85.4563C52.5909 85.1209 52.4472 84.8608 52.3992 84.8403C50.5719 85.9559 48.7513 87.0782 46.924 88.1939C47.8343 90.0623 49.1757 91.6844 50.8935 92.7383C53.4601 94.2782 56.9095 94.7505 60.5164 93.9224C62.8639 93.2379 64.8897 91.8213 65.9506 89.6654C67.4836 86.8388 67.1551 83.4167 67.1414 79.6319C67.1757 73.4585 67.1414 67.2852 67.1414 61.0912Z" fill="#323330"/>
</g>
<defs>
<clipPath id="clip0_75_9">
<rect x="28" y="28" width="72" height="72" rx="4" fill="white"/>
</clipPath>
</defs>
</svg>
