<svg width="128" height="128" viewBox="0 0 128 128" fill="none" xmlns="http://www.w3.org/2000/svg">
<rect width="128" height="128" rx="16" fill="#292825"/>
<path fill-rule="evenodd" clip-rule="evenodd" d="M28 61.1852C28 59.7251 28.6092 58.3301 29.6828 57.3319L43.8713 44.1398C46.9398 41.2867 51.7122 41.2867 54.7808 44.1398L68.9692 57.3319C70.0427 58.3301 70.652 59.7251 70.652 61.1852V78.3705C70.652 82.7443 67.0797 86.2902 62.6731 86.2902H35.9789C31.5723 86.2902 28 82.7443 28 78.3705V61.1852ZM41.2982 81.0104C42.7671 81.0104 43.9578 79.8283 43.9578 78.3705C43.9578 76.9125 42.7671 75.7306 41.2982 75.7306H35.9789C34.51 75.7306 33.3193 76.9125 33.3193 78.3705C33.3193 79.8283 34.51 81.0104 35.9789 81.0104H41.2982ZM75.9713 78.3705V61.6407H100V78.3705C100 82.7443 96.4276 86.2902 92.0211 86.2902H73.3126C74.982 84.0841 75.9713 81.342 75.9713 78.3705ZM97.2728 56.3608H75.7056L67.8904 49.0944L73.2192 44.1398C76.2878 41.2867 81.0602 41.2867 84.1287 44.1398L97.2728 56.3608Z" fill="#D14424"/>
</svg>
